<?xml version="1.0" encoding="utf-8"?>
<svg xmlns="http://www.w3.org/2000/svg" xmlns:xlink="http://www.w3.org/1999/xlink" width="1024" height="1024" viewBox="0 0 1024 1024" role="img" aria-label="Wallwize transparent symbol from exact source">
  <title>Wallwize transparent symbol from exact source</title>
  <svg x="0" y="0" width="1024" height="1024" viewBox="75 145 410 330" preserveAspectRatio="xMidYMid meet">
<defs xmlns="http://www.w3.org/2000/svg"><linearGradient id="gradient_0" gradientUnits="userSpaceOnUse" x1="797.71252" y1="732.44446" x2="827.83826" y2="707.50409"><stop offset="0" stop-color="#3B3DDE"/><stop offset="1" stop-color="#6E70FF"/></linearGradient></defs><defs xmlns="http://www.w3.org/2000/svg"><linearGradient id="gradient_1" gradientUnits="userSpaceOnUse" x1="777.42133" y1="793.78741" x2="779.5473" y2="755.91089"><stop offset="0" stop-color="#3B3CF9"/><stop offset="1" stop-color="#6063FE"/></linearGradient></defs><defs xmlns="http://www.w3.org/2000/svg"><linearGradient id="gradient_2" gradientUnits="userSpaceOnUse" x1="784.8139" y1="755.80847" x2="809.97778" y2="743.23633"><stop offset="0" stop-color="#1B1B9F"/><stop offset="1" stop-color="#4142E4"/></linearGradient></defs><defs xmlns="http://www.w3.org/2000/svg"><linearGradient id="gradient_3" gradientUnits="userSpaceOnUse" x1="766.56573" y1="758.47736" x2="768.30914" y2="708.36975"><stop offset="0" stop-color="#6062FD"/><stop offset="1" stop-color="#8F90FD"/></linearGradient></defs><defs xmlns="http://www.w3.org/2000/svg"><linearGradient id="gradient_4" gradientUnits="userSpaceOnUse" x1="750.75989" y1="706.20435" x2="750.97461" y2="678.15204"><stop offset="0" stop-color="#3837E5"/><stop offset="1" stop-color="#5E5FFF"/></linearGradient></defs><defs xmlns="http://www.w3.org/2000/svg"><linearGradient id="gradient_5" gradientUnits="userSpaceOnUse" x1="1200.1038" y1="772.07721" x2="1200.2614" y2="695.75903"><stop offset="0" stop-color="#6668FE"/><stop offset="1" stop-color="#9E9EFD"/></linearGradient></defs><defs xmlns="http://www.w3.org/2000/svg"><linearGradient id="gradient_6" gradientUnits="userSpaceOnUse" x1="1216.0087" y1="763.49225" x2="1289.4194" y2="707.7392"><stop offset="0" stop-color="#1415B3"/><stop offset="1" stop-color="#8083FF"/></linearGradient></defs><defs xmlns="http://www.w3.org/2000/svg"><linearGradient id="gradient_7" gradientUnits="userSpaceOnUse" x1="1214.5339" y1="806.83295" x2="1214.8368" y2="768.40491"><stop offset="0" stop-color="#4B4DFA"/><stop offset="1" stop-color="#676AFE"/></linearGradient></defs><defs xmlns="http://www.w3.org/2000/svg"><linearGradient id="gradient_8" gradientUnits="userSpaceOnUse" x1="1124.5416" y1="667.95093" x2="1123.0828" y2="743.31494"><stop offset="0" stop-color="#AAA9FC"/><stop offset="1" stop-color="#6D6FFE"/></linearGradient></defs><defs xmlns="http://www.w3.org/2000/svg"><linearGradient id="gradient_9" gradientUnits="userSpaceOnUse" x1="1140.668" y1="806.76215" x2="1140.9275" y2="740.20575"><stop offset="0" stop-color="#3B3CFA"/><stop offset="1" stop-color="#6E71FE"/></linearGradient></defs><defs xmlns="http://www.w3.org/2000/svg"><linearGradient id="gradient_10" gradientUnits="userSpaceOnUse" x1="1175.1625" y1="694.84814" x2="1176.5284" y2="656.14258"><stop offset="0" stop-color="#4242E8"/><stop offset="1" stop-color="#6163FE"/></linearGradient></defs><defs xmlns="http://www.w3.org/2000/svg"><linearGradient id="gradient_11" gradientUnits="userSpaceOnUse" x1="179.60587" y1="447.16946" x2="183.05052" y2="297.41541"><stop offset="0" stop-color="#3839FA"/><stop offset="1" stop-color="#7A7CFE"/></linearGradient></defs><defs xmlns="http://www.w3.org/2000/svg"><linearGradient id="gradient_12" gradientUnits="userSpaceOnUse" x1="184.28003" y1="333.78632" x2="321.35892" y2="258.1568"><stop offset="0" stop-color="#111282"/><stop offset="1" stop-color="#3A38E2"/></linearGradient></defs><defs xmlns="http://www.w3.org/2000/svg"><linearGradient id="gradient_13" gradientUnits="userSpaceOnUse" x1="286.28558" y1="307.1579" x2="291.61386" y2="237.45663"><stop offset="0" stop-color="#8E8EFD"/><stop offset="1" stop-color="#B5B5FD"/></linearGradient></defs><defs xmlns="http://www.w3.org/2000/svg"><linearGradient id="gradient_14" gradientUnits="userSpaceOnUse" x1="149.24146" y1="302.0448" x2="154.03912" y2="194.38788"><stop offset="0" stop-color="#7879FD"/><stop offset="1" stop-color="#B5B5FC"/></linearGradient></defs><defs xmlns="http://www.w3.org/2000/svg"><linearGradient id="gradient_15" gradientUnits="userSpaceOnUse" x1="316.04623" y1="446.92035" x2="316.74863" y2="304.2706"><stop offset="0" stop-color="#4E50FC"/><stop offset="1" stop-color="#9192FE"/></linearGradient></defs><defs xmlns="http://www.w3.org/2000/svg"><linearGradient id="gradient_16" gradientUnits="userSpaceOnUse" x1="358.81442" y1="319.23227" x2="448.24936" y2="229.77492"><stop offset="0" stop-color="#3739E5"/><stop offset="1" stop-color="#8A8CFF"/></linearGradient></defs><defs xmlns="http://www.w3.org/2000/svg"><linearGradient id="gradient_17" gradientUnits="userSpaceOnUse" x1="343.93353" y1="361.63458" x2="394.07635" y2="339.87936"><stop offset="0" stop-color="#191A96"/><stop offset="1" stop-color="#4142EC"/></linearGradient></defs><defs xmlns="http://www.w3.org/2000/svg"><linearGradient id="gradient_18" gradientUnits="userSpaceOnUse" x1="216.95502" y1="806.46558" x2="215.76414" y2="740.69775"><stop offset="0" stop-color="#3D3EFB"/><stop offset="1" stop-color="#6C6FFD"/></linearGradient></defs><defs xmlns="http://www.w3.org/2000/svg"><linearGradient id="gradient_19" gradientUnits="userSpaceOnUse" x1="247.52519" y1="705.96851" x2="255.44072" y2="657.89612"><stop offset="0" stop-color="#2725CB"/><stop offset="1" stop-color="#5756FF"/></linearGradient></defs><defs xmlns="http://www.w3.org/2000/svg"><linearGradient id="gradient_20" gradientUnits="userSpaceOnUse" x1="277.00949" y1="768.67535" x2="277.92834" y2="691.16425"><stop offset="0" stop-color="#6466FD"/><stop offset="1" stop-color="#A3A2FD"/></linearGradient></defs><defs xmlns="http://www.w3.org/2000/svg"><linearGradient id="gradient_21" gradientUnits="userSpaceOnUse" x1="299.10931" y1="755.93829" x2="336.26816" y2="736.50452"><stop offset="0" stop-color="#1E1FAE"/><stop offset="1" stop-color="#4A4CEF"/></linearGradient></defs><defs xmlns="http://www.w3.org/2000/svg"><linearGradient id="gradient_22" gradientUnits="userSpaceOnUse" x1="320.32935" y1="719.12347" x2="361.13199" y2="687.81921"><stop offset="0" stop-color="#484AEE"/><stop offset="1" stop-color="#8385FF"/></linearGradient></defs><defs xmlns="http://www.w3.org/2000/svg"><linearGradient id="gradient_23" gradientUnits="userSpaceOnUse" x1="294.66861" y1="807.11536" x2="292.7991" y2="763.56848"><stop offset="0" stop-color="#4A4BFB"/><stop offset="1" stop-color="#676AFD"/></linearGradient></defs><defs xmlns="http://www.w3.org/2000/svg"><linearGradient id="gradient_24" gradientUnits="userSpaceOnUse" x1="689.62878" y1="323.3403" x2="694.6637" y2="252.52649"><stop offset="0" stop-color="#5F61FD"/><stop offset="1" stop-color="#A1A1FE"/></linearGradient></defs><defs xmlns="http://www.w3.org/2000/svg"><linearGradient id="gradient_25" gradientUnits="userSpaceOnUse" x1="635.98083" y1="355.61179" x2="639.56281" y2="301.74316"><stop offset="0" stop-color="#393AF9"/><stop offset="1" stop-color="#6366FE"/></linearGradient></defs><defs xmlns="http://www.w3.org/2000/svg"><linearGradient id="gradient_26" gradientUnits="userSpaceOnUse" x1="669.06476" y1="256.9996" x2="673.46582" y2="217.74071"><stop offset="0" stop-color="#2B29D2"/><stop offset="1" stop-color="#5A5AFF"/></linearGradient></defs><defs xmlns="http://www.w3.org/2000/svg"><linearGradient id="gradient_27" gradientUnits="userSpaceOnUse" x1="711.677" y1="307.76624" x2="741.13867" y2="294.45444"><stop offset="0" stop-color="#181997"/><stop offset="1" stop-color="#4142E2"/></linearGradient></defs><defs xmlns="http://www.w3.org/2000/svg"><linearGradient id="gradient_28" gradientUnits="userSpaceOnUse" x1="728.46088" y1="278.34918" x2="765.14764" y2="252.58693"><stop offset="0" stop-color="#3E3FDF"/><stop offset="1" stop-color="#7A7DFF"/></linearGradient></defs><defs xmlns="http://www.w3.org/2000/svg"><linearGradient id="gradient_29" gradientUnits="userSpaceOnUse" x1="944.45013" y1="266.59256" x2="942.58539" y2="323.30298"><stop offset="0" stop-color="#9B9BFC"/><stop offset="1" stop-color="#6366FE"/></linearGradient></defs><defs xmlns="http://www.w3.org/2000/svg"><linearGradient id="gradient_30" gradientUnits="userSpaceOnUse" x1="965.29169" y1="294.88367" x2="1004.5874" y2="269.01596"><stop offset="0" stop-color="#2C2CC9"/><stop offset="1" stop-color="#7A7CFF"/></linearGradient></defs><defs xmlns="http://www.w3.org/2000/svg"><linearGradient id="gradient_31" gradientUnits="userSpaceOnUse" x1="967.81042" y1="327.99655" x2="982.15344" y2="321.45569"><stop offset="0" stop-color="#181999"/><stop offset="1" stop-color="#3131C6"/></linearGradient></defs><defs xmlns="http://www.w3.org/2000/svg"><linearGradient id="gradient_32" gradientUnits="userSpaceOnUse" x1="952.40027" y1="348.15991" x2="955.42407" y2="320.48764"><stop offset="0" stop-color="#4545FA"/><stop offset="1" stop-color="#6164FE"/></linearGradient></defs><defs xmlns="http://www.w3.org/2000/svg"><linearGradient id="gradient_33" gradientUnits="userSpaceOnUse" x1="899.67651" y1="347.28571" x2="900.40576" y2="302.94077"><stop offset="0" stop-color="#3D3DFA"/><stop offset="1" stop-color="#696CFE"/></linearGradient></defs><defs xmlns="http://www.w3.org/2000/svg"><linearGradient id="gradient_34" gradientUnits="userSpaceOnUse" x1="926.3205" y1="262.41827" x2="928.29749" y2="237.93753"><stop offset="0" stop-color="#3331DB"/><stop offset="1" stop-color="#5656FF"/></linearGradient></defs><defs xmlns="http://www.w3.org/2000/svg"><linearGradient id="gradient_35" gradientUnits="userSpaceOnUse" x1="1166.2368" y1="304.79865" x2="1198.421" y2="283.03598"><stop offset="0" stop-color="#2424C5"/><stop offset="1" stop-color="#7678FF"/></linearGradient></defs><defs xmlns="http://www.w3.org/2000/svg"><linearGradient id="gradient_36" gradientUnits="userSpaceOnUse" x1="1121.0863" y1="340.47134" x2="1118.1333" y2="303.57343"><stop offset="0" stop-color="#4142FB"/><stop offset="1" stop-color="#6E71FE"/></linearGradient></defs><defs xmlns="http://www.w3.org/2000/svg"><linearGradient id="gradient_37" gradientUnits="userSpaceOnUse" x1="1138.9296" y1="277.28619" x2="1139.8999" y2="255.72298"><stop offset="0" stop-color="#3D3DED"/><stop offset="1" stop-color="#6467FE"/></linearGradient></defs><defs xmlns="http://www.w3.org/2000/svg"><linearGradient id="gradient_38" gradientUnits="userSpaceOnUse" x1="140.59174" y1="976.15265" x2="157.2196" y2="962.7616"><stop offset="0" stop-color="#4243E2"/><stop offset="1" stop-color="#7274FF"/></linearGradient></defs><defs xmlns="http://www.w3.org/2000/svg"><linearGradient id="gradient_39" gradientUnits="userSpaceOnUse" x1="133.03752" y1="1016.1985" x2="128.38403" y2="1000.8023"><stop offset="0" stop-color="#4545FA"/><stop offset="1" stop-color="#5F62FF"/></linearGradient></defs><defs xmlns="http://www.w3.org/2000/svg"><linearGradient id="gradient_40" gradientUnits="userSpaceOnUse" x1="115.46627" y1="963.43982" x2="112.77383" y2="946.05292"><stop offset="0" stop-color="#3B39E7"/><stop offset="1" stop-color="#6060FF"/></linearGradient></defs><path xmlns="http://www.w3.org/2000/svg" fill="url(#gradient_11)" d="M207.045 164.831C209.086 164.019 211.606 163.106 213.836 163.687C240.064 170.516 266.202 178.997 291.982 187.403C295.307 188.487 297.064 190.549 299.11 193.212C299.674 194.645 300.384 196.125 300.62 197.604C301.868 205.447 301.204 239.508 300.803 248.606C310.001 251.052 324.836 253.198 329.244 261.799C330.299 263.858 331.284 267.963 331.872 270.316L341.166 304.765L340.196 307.78C322.316 309.481 265.072 301.118 253.995 306.077C256.623 316.567 259.355 327.03 262.192 337.465C263.278 341.483 266.36 351.973 266.872 355.655C264.457 360.083 263.856 367.002 262.704 372.03C260.04 383.669 248.976 438.794 244.654 444.833C244.567 444.953 244.487 445.079 244.403 445.201C237.404 450.148 224.937 448.476 216.304 448.36C199.843 448.137 183.762 448.72 167.263 448.336C158.029 448.12 156.028 444.206 153.355 436.049C149.234 420.664 145.524 404.557 141.762 389.126L119.629 299.14C116.965 283.513 93.5872 202.096 96.6628 194.995C97.3602 193.385 98.9574 192.228 100.589 191.707C103.357 190.822 106.607 191.176 109.416 191.731C117.118 193.254 124.847 196.152 132.434 198.271C143.53 201.37 174.769 208.444 182.583 213.108C185.614 214.916 187.836 217.294 189.366 220.477C192.05 226.062 192.765 233.153 194.201 239.183L203.247 276.478C204.986 273.768 203.404 188.398 203.452 175.148L203.444 174.473L203.425 173.6C203.36 168.827 203.662 168.329 207.045 164.831Z"/><path xmlns="http://www.w3.org/2000/svg" fill="url(#gradient_12)" d="M207.045 164.831C209.086 164.019 211.606 163.106 213.836 163.687C240.064 170.516 266.202 178.997 291.982 187.403C295.307 188.487 297.064 190.549 299.11 193.212C299.674 194.645 300.384 196.125 300.62 197.604C301.868 205.447 301.204 239.508 300.803 248.606C310.001 251.052 324.836 253.198 329.244 261.799C330.299 263.858 331.284 267.963 331.872 270.316L341.166 304.765L340.196 307.78C322.316 309.481 265.072 301.118 253.995 306.077C256.623 316.567 259.355 327.03 262.192 337.465C263.278 341.483 266.36 351.973 266.872 355.655C264.457 360.083 263.856 367.002 262.704 372.03C260.04 383.669 248.976 438.794 244.654 444.833C244.567 444.953 244.487 445.079 244.403 445.201C242.562 441.613 236.643 414.289 235.056 408.049C225.404 370.092 217.14 331.05 207.113 293.25C205.89 287.644 204.602 282.053 203.247 276.478C204.986 273.768 203.404 188.398 203.452 175.148L203.444 174.473L203.425 173.6C203.36 168.827 203.662 168.329 207.045 164.831Z"/><path xmlns="http://www.w3.org/2000/svg" fill="url(#gradient_13)" d="M253.995 306.077C251.481 296.488 235.644 244.344 237.232 238.294C237.696 236.525 238.807 235.215 240.447 234.418C242.877 233.237 246.195 233.334 248.822 233.721C254.989 234.628 261.299 237.017 267.297 238.774L300.803 248.606C310.001 251.052 324.836 253.198 329.244 261.799C330.299 263.858 331.284 267.963 331.872 270.316L341.166 304.765L340.196 307.78C322.316 309.481 265.072 301.118 253.995 306.077Z"/><path xmlns="http://www.w3.org/2000/svg" fill="#5152F7" d="M207.045 164.831C209.086 164.019 211.606 163.106 213.836 163.687C240.064 170.516 266.202 178.997 291.982 187.403C295.307 188.487 297.064 190.549 299.11 193.212C299.674 194.645 300.384 196.125 300.62 197.604C300.157 202.817 300.731 212.18 299.49 216.629C295.641 218.732 237.531 213.824 229.877 213.436C225.874 213.232 219.644 209.372 216.367 210.6C215.877 212.778 219.793 221.787 220.398 227.528C215.053 212.608 209.603 189.504 203.802 175.957L203.452 175.148L203.444 174.473L203.425 173.6C203.36 168.827 203.662 168.329 207.045 164.831Z"/><path xmlns="http://www.w3.org/2000/svg" fill="#7072FC" d="M207.045 164.831C209.086 164.019 211.606 163.106 213.836 163.687C240.064 170.516 266.202 178.997 291.982 187.403C295.307 188.487 297.064 190.549 299.11 193.212C291.018 194.545 261.236 183.997 251.757 181.454C242.563 178.987 212.085 171.706 207.045 164.831Z"/><path xmlns="http://www.w3.org/2000/svg" fill="url(#gradient_14)" d="M119.629 299.14C116.965 283.513 93.5872 202.096 96.6628 194.995C97.3602 193.385 98.9574 192.228 100.589 191.707C103.357 190.822 106.607 191.176 109.416 191.731C117.118 193.254 124.847 196.152 132.434 198.271C143.53 201.37 174.769 208.444 182.583 213.108C185.614 214.916 187.836 217.294 189.366 220.477C192.05 226.062 192.765 233.153 194.201 239.183L203.247 276.478C204.602 282.053 205.89 287.644 207.113 293.25C206.988 296.034 207.216 298.083 205.787 300.397C202.951 301.738 193.369 301.03 189.818 301.245C184.307 301.578 179.033 302.801 173.587 303.322C158.551 304.758 144.308 298.008 129.614 296.869C126.757 296.647 122.373 298.259 119.629 299.14Z"/><path xmlns="http://www.w3.org/2000/svg" fill="url(#gradient_15)" d="M333.202 267.375C335.077 260.61 337.623 244.241 343.873 240.398C349.369 237.02 435.235 219.327 440.35 220.945C442.583 221.652 444.89 223.497 445.834 225.69C446.932 228.238 445.432 233.28 444.801 235.918C438.599 261.842 429.84 287.633 422.254 313.223C416.541 332.494 411.859 352.685 405.001 371.53C403.045 381.303 399.141 392.364 396.483 402.115C392.84 415.486 388.896 428.93 384.89 442.18C384.376 443.775 382.188 445.542 380.849 446.461C380.42 446.753 379.985 447.038 379.545 447.314C374.664 448.698 368.781 448.536 363.679 448.452C343.423 448.085 323.014 448.663 302.781 448.404C294.718 448.301 291.549 444.859 289.237 437.512C286.377 428.421 284.009 418.91 281.525 409.717L266.872 355.655C266.36 351.973 263.278 341.483 262.192 337.465C259.355 327.03 256.623 316.567 253.995 306.077C265.072 301.118 322.316 309.481 340.196 307.78L341.166 304.765L331.872 270.316C332.309 269.525 332.821 268.241 333.202 267.375Z"/><path xmlns="http://www.w3.org/2000/svg" fill="url(#gradient_16)" d="M333.202 267.375C335.077 260.61 337.623 244.241 343.873 240.398C349.369 237.02 435.235 219.327 440.35 220.945C442.583 221.652 444.89 223.497 445.834 225.69C446.932 228.238 445.432 233.28 444.801 235.918C438.599 261.842 429.84 287.633 422.254 313.223C416.541 332.494 411.859 352.685 405.001 371.53C404.99 371.224 404.946 369.201 404.918 369.001C402.074 348.744 383.298 324.779 370.772 308.683C365.451 302.937 359.376 298.508 354.431 292.367C347.256 283.458 348.51 270.691 335.507 268.058L335.484 268.398L334.187 268.807L333.202 267.375Z"/><path xmlns="http://www.w3.org/2000/svg" fill="url(#gradient_17)" d="M331.872 270.316C332.309 269.525 332.821 268.241 333.202 267.375L334.187 268.807L335.484 268.398L335.507 268.058C348.51 270.691 347.256 283.458 354.431 292.367C359.376 298.508 365.451 302.937 370.772 308.683C383.298 324.779 402.074 348.744 404.918 369.001C404.946 369.201 404.99 371.224 405.001 371.53C403.045 381.303 399.141 392.364 396.483 402.115C392.84 415.486 388.896 428.93 384.89 442.18C384.376 443.775 382.188 445.542 380.849 446.461C380.42 446.753 379.985 447.038 379.545 447.314C376.849 433.206 370.758 412.459 366.946 398.309L341.166 304.765L331.872 270.316Z"/>
  </svg>
</svg>